<svg width="230" height="112" viewBox="0 0 230 112" fill="none" xmlns="http://www.w3.org/2000/svg">
<path d="M2.72 60H33.44C34.52 60 35.18 59.4 35.42 58.38L36.8 51.78C37.04 50.58 36.44 49.8 35.18 49.8H13.52L19.94 19.62C20.18 18.42 19.58 17.64 18.32 17.64H11.3C10.22 17.64 9.56 18.24 9.32 19.26L1.1 58.02C0.86 59.22 1.46 60 2.72 60ZM55.2462 60H69.2263C78.8263 60 83.5663 54 85.3663 45.42L90.8263 19.62C91.0663 18.42 90.4663 17.64 89.2063 17.64H82.1863C81.1063 17.64 80.4463 18.24 80.2063 19.26L74.6263 45.78C73.8463 49.38 72.2863 49.8 70.1863 49.8H56.2063C54.1063 49.8 52.7863 49.38 53.5663 45.78L59.0863 19.62C59.3263 18.42 58.7263 17.64 57.4663 17.64H50.4463C49.3663 17.64 48.7063 18.24 48.4663 19.26L42.9463 45.42C41.1463 54 45.6463 60 55.2462 60ZM104.675 60H118.655C128.255 60 132.395 54 134.195 45.42L134.435 44.22C134.555 43.5 133.955 43.08 132.695 43.08H125.615C124.535 43.08 123.935 43.62 123.695 44.7L123.455 45.78C122.675 49.38 121.115 49.8 119.015 49.8H105.635C103.535 49.8 102.215 49.38 102.995 45.78L105.935 31.92C106.715 28.26 108.035 27.84 110.315 27.84H123.695C125.975 27.84 127.175 28.26 126.395 31.92L126.215 32.94C126.095 33.54 126.755 33.96 128.015 33.96H134.975C136.055 33.96 136.775 33.42 136.955 32.34V32.28C138.815 23.64 134.255 17.64 124.655 17.64H111.275C101.675 17.64 96.9955 23.64 95.1355 32.28L92.3755 45.42C90.5755 54 95.0755 60 104.675 60ZM139.302 60H146.322C147.402 60 148.062 59.4 148.302 58.38L151.422 43.62H158.562L166.662 58.74C167.142 59.58 167.802 60 168.762 60H176.682C178.062 60 178.662 59.04 178.002 57.84L167.862 39.24L186.042 19.86C187.122 18.66 186.642 17.64 185.082 17.64H175.842C174.942 17.64 174.222 17.94 173.622 18.66L159.822 34.38H153.402L156.522 19.62C156.762 18.42 156.162 17.64 154.902 17.64H147.882C146.802 17.64 146.142 18.24 145.902 19.26L137.682 58.02C137.442 59.22 138.042 60 139.302 60ZM194.697 60H201.717C202.797 60 203.457 59.4 203.697 58.38L205.857 48.24L229.017 19.86C229.977 18.66 229.497 17.64 227.997 17.64H218.937C217.977 17.64 217.257 18 216.717 18.72L201.657 38.4L194.697 19.08C194.337 18.06 193.617 17.64 192.597 17.64H185.397C184.077 17.64 183.537 18.48 184.017 19.74L195.177 48.24L193.077 58.02C192.837 59.22 193.437 60 194.697 60Z" fill="#F0E45D"/>
<path d="M2.35 102H23.2C31.65 102 34.75 98.65 35.9 92.2L36 91.65C36.65 88 35.6 85.7 33.95 84.3C36.3 83.3 38.25 80.65 38.85 77.2L38.95 76.6C40.05 70.15 35.45 66.7 27 66.7H9.5C8.6 66.7 8.05 67.2 7.85 68.05L1 100.35C0.8 101.35 1.3 102 2.35 102ZM14 81L15.2 75.2H26.75C28.3 75.2 30 75.5 29.55 77.65L29.35 78.55C28.9 80.75 27.45 81 26.05 81H14ZM11.3 93.6L12.55 87.8H24.45C26 87.8 27.7 88.05 27.2 90.25L27 91.15C26.55 93.35 25.1 93.6 23.7 93.6H11.3ZM70.8742 66.7H53.5742C52.6742 66.7 52.1242 67.2 51.9242 68.05L45.0742 100.35C44.8742 101.35 45.3742 102 46.4242 102H52.2742C53.1742 102 53.7242 101.5 53.9242 100.65L55.3242 93.95H65.4742L68.2742 100.85C68.5742 101.65 69.1242 102 69.9742 102H76.4242C77.5742 102 78.0242 101.3 77.5242 100.25L74.1242 93.2C79.4742 91.45 81.8742 86.95 83.1742 80.9L83.3742 79.95C85.1742 71.4 80.8742 66.7 70.8742 66.7ZM74.4242 80L74.2242 80.8C73.1742 85 70.8742 85.55 67.1242 85.55H57.1242L59.3242 75.2H69.3242C73.2242 75.2 75.4742 75.8 74.4242 80ZM90.6938 102H117.494C118.394 102 118.944 101.5 119.144 100.65L120.294 95.15C120.494 94.15 119.994 93.5 118.944 93.5H99.6438L100.794 88.1H112.794C113.694 88.1 114.244 87.6 114.444 86.75L115.444 82.05C115.644 81.05 115.144 80.4 114.094 80.4H102.444L103.544 75.2H123.194C124.094 75.2 124.644 74.7 124.844 73.85L125.994 68.35C126.194 67.35 125.694 66.7 124.644 66.7H97.8438C96.9438 66.7 96.3938 67.2 96.1937 68.05L89.3438 100.35C89.1438 101.35 89.6438 102 90.6938 102ZM159.507 102H166.057C167.107 102 167.607 101.35 167.357 100.35L159.507 68C159.307 67.15 158.757 66.7 157.857 66.7H150.757C149.957 66.7 149.407 67 148.957 67.65L127.257 100.2C126.607 101.2 127.057 102 128.257 102H135.207C136.007 102 136.607 101.7 137.007 101L139.857 96.5H157.057L157.907 100.65C158.107 101.55 158.607 102 159.507 102ZM144.407 89.3L152.907 75.8L155.607 89.3H144.407ZM178.11 102H183.96C184.86 102 185.41 101.5 185.61 100.65L188.21 88.35H194.16L200.91 100.95C201.31 101.65 201.86 102 202.66 102H209.26C210.41 102 210.91 101.2 210.36 100.2L201.91 84.7L217.06 68.55C217.96 67.55 217.56 66.7 216.26 66.7H208.56C207.81 66.7 207.21 66.95 206.71 67.55L195.21 80.65H189.86L192.46 68.35C192.66 67.35 192.16 66.7 191.11 66.7H185.26C184.36 66.7 183.81 67.2 183.61 68.05L176.76 100.35C176.56 101.35 177.06 102 178.11 102Z" fill="white"/>
</svg>

